<svg xmlns="http://www.w3.org/2000/svg" width="198" height="560" viewBox="0 0 198 560">
  <metadata><?xpacket begin="﻿" id="W5M0MpCehiHzreSzNTczkc9d"?>
<x:xmpmeta xmlns:x="adobe:ns:meta/" x:xmptk="Adobe XMP Core 5.6-c142 79.160924, 2017/07/13-01:06:39        ">
   <rdf:RDF xmlns:rdf="http://www.w3.org/1999/02/22-rdf-syntax-ns#">
      <rdf:Description rdf:about=""/>
   </rdf:RDF>
</x:xmpmeta>
                                                                                                    
                                                                                                    
                                                                                                    
                                                                                                    
                                                                                                    
                                                                                                    
                                                                                                    
                                                                                                    
                                                                                                    
                                                                                                    
                                                                                                    
                                                                                                    
                                                                                                    
                                                                                                    
                                                                                                    
                                                                                                    
                                                                                                    
                                                                                                    
                                                                                                    
                                                                                                    
                           
<?xpacket end="w"?></metadata>
<defs>
    <style>
      .cls-1 {
        fill: #e5ff00;
        fill-rule: evenodd;
      }
    </style>
  </defs>
  <path class="cls-1" d="M1166.14,1406.14v24.26c0,48.74-42.44,88.25-94.79,88.25h-26.07c-12.06,0-10.85,25.85,24.82,35.21,206.61,54.23,298.49-22.06,295.84-18.56C1365.94,1535.3,1166.14,1128.12,1166.14,1406.14Z" transform="translate(-972 -1309)"/>
  <path id="Rectangle_2_copy" data-name="Rectangle 2 copy" class="cls-1" d="M1166.14,1771.86V1747.6c0-48.74-42.44-88.25-94.79-88.25h-26.07c-12.06,0-10.85-25.85,24.82-35.22,206.61-54.22,298.49,22.07,295.84,18.57C1365.94,1642.7,1166.14,2049.88,1166.14,1771.86Z" transform="translate(-972 -1309)"/>
  <path class="cls-1" d="M1042,1518.65h100.14a70,70,0,0,1,70,70v1.19a70,70,0,0,1-70,70H1042a70,70,0,0,1-70-70v-1.19A70,70,0,0,1,1042,1518.65Z" transform="translate(-972 -1309)"/>
</svg>
